# Rhino

mtllib Ai-Export.mtl
usemtl diffuse_0_0_0_255
v 1616.127685546875 0 -2098.69384765625
v 1623.20458984375 347.4383544921875 -2176.000244140625
v 1616.5977783203125 5.1412205696105957 -2404.120849609375
v 1738.9083251953125 1376.9324951171875 -878.44158935546875
v 1686.4478759765625 957.78961181640625 -1372.5281982421875
v 1616.2020263671875 -4.963019847869873 -871.32080078125
v 1794.904296875 1614.1319580078125 -418.83969116210938
v 1617.0108642578125 39.759777069091797 -327.76028442382812
v 1775.1956787109375 1246.9205322265625 -2106.67822265625
v 1679.5772705078125 866.8839111328125 -1783.9517822265625
v 1946.8109130859375 1792.926513671875 -1404.347900390625
v 1954.3206787109375 1637.4169921875 -2321.971435546875
v 2047.35693359375 1869.6004638671875 -1784.117431640625
v 2244.85302734375 2082.8427734375 -2090.37890625
v 2201.452880859375 2075.3525390625 -818.31365966796875
v 2529.34619140625 2298.56787109375 -1311.52978515625
v 2450.84375 2254.464111328125 -2287.13427734375
v 2595.9287109375 2380.966064453125 -2933.88720703125
v 2029.478759765625 1741.31884765625 -2871.847412109375
v 2408.144775390625 2209.9921875 -188.73365783691406
v 3235.962890625 2681.996826171875 -616.71881103515625
v 2982.117431640625 2585.219970703125 -2142.766357421875
v 3192.73681640625 2685.07568359375 -2658.213134765625
v 3588.687744140625 2789.148681640625 -2214.195068359375
v 3851.894287109375 2954.3935546875 -29.960563659667969
v 3750.17333984375 2846.6337890625 -979.50732421875
v 3319.9873046875 2730.418212890625 -1757.93798828125
v 4058.2861328125 2841.740966796875 -1630.0548095703125
v 4411.17138671875 2932.04541015625 -341.62628173828125
v 3885.738037109375 2829.01611328125 -2636.53173828125
v 4425.9375 2841.753173828125 -1005.9213256835938
v 4549.0234375 2698.48193359375 -2021.885498046875
v 4961.8896484375 2452.439208984375 -1952.12890625
v 4227.65625 2775.003173828125 -2891.281494140625
v 5162.65966796875 2394.61572265625 -1568.291015625
v 4615.82666015625 2598.649169921875 -2811.706298828125
v 5026.1328125 2527.331298828125 -1324.5894775390625
v 4696.42236328125 2790.2998046875 -710.4156494140625
v 5135.66943359375 2616.073486328125 -322.453125
v 5365.5771484375 1972.00390625 -2229.938232421875
v 5067.8955078125 2234.099609375 -2656.9365234375
v 5523.58544921875 2168.880126953125 -710.321044921875
v 5451.5546875 2099.948974609375 -1301.4228515625
v 5713.30224609375 1364.883544921875 -2441.010009765625
v 5462.90234375 1612.9288330078125 -3001.131103515625
v 5973.06689453125 1330.4376220703125 -1159.6712646484375
v 5720.3212890625 1580.223388671875 -1722.1702880859375
v 5936.27001953125 1158.839599609375 -1702.432373046875
v 6066.1142578125 607.534912109375 -2453.977294921875
v 5875.77392578125 1701.7615966796875 -590.59234619140625
v 6245.6083984375 603.70574951171875 -297.90969848632812
v 5932.296875 765.041259765625 -3001.232666015625
v 6236.98828125 216.98069763183594 -1982.4248046875
v 6273.5556640625 131.05804443359375 -930.607177734375
v 6289.92724609375 4.360872745513916 -2813.326171875
vn -0.99070483446121216 0.089965224266052246 0.10203053057193756
vn -0.98780512809753418 0.14000149071216583 -0.06812208890914917
vn -0.98259800672531128 0.11576876789331436 -0.14525420963764191
vn -0.95721298456192017 0.28830146789550781 -0.025011967867612839
vn -0.96279674768447876 0.25399518013000488 -0.092243507504463196
vn -0.99599868059158325 0.088504217565059662 0.012395920231938362
vn -0.87824809551239014 0.47798135876655579 -0.014632341451942921
vn -0.99439305067062378 0.10205559432506561 0.02769654244184494
vn -0.95251971483230591 0.30437210202217102 -0.0079868920147418976
vn -0.96160393953323364 0.27316233515739441 -0.026460357010364532
vn -0.83418023586273193 0.54691499471664429 -0.070903517305850983
vn -0.91783124208450317 0.37015882134437561 -0.14341649413108826
vn -0.86189597845077515 0.50437337160110474 -0.052372090518474579
vn -0.74052548408508301 0.67202651500701904 -0.0015405864687636495
vn -0.72437882423400879 0.68919599056243896 -0.016859566792845726
vn -0.57012754678726196 0.82155525684356689 0.0012383703142404556
vn -0.64161014556884766 0.76699167490005493 0.0077581694349646568
vn -0.58686882257461548 0.80967986583709717 -0.0018701142398640513
vn -0.76489615440368652 0.64177340269088745 -0.055323705077171326
vn -0.59005236625671387 0.80659180879592896 0.035325214266777039
vn -0.40397205948829651 0.91473650932312012 -0.0079826461151242256
vn -0.45943307876586914 0.88775026798248291 0.028648179024457932
vn -0.32346922159194946 0.94623762369155884 -0.0014159582788124681
vn -0.22420479357242584 0.97453415393829346 -0.0039169616065919399
vn -0.18751066923141479 0.97804689407348633 -0.090906888246536255
vn -0.17804190516471863 0.98240762948989868 -0.056358423084020615
vn -0.3099980354309082 0.95072817802429199 -0.0041478890925645828
vn 0.022170927375555038 0.99831551313400269 -0.05361497774720192
vn 0.16759771108627319 0.9816245436668396 -0.091237351298332214
vn 0.022867145016789436 0.99957138299942017 -0.018280886113643646
vn 0.3157489001750946 0.93574106693267822 -0.1571347564458847
vn 0.36155152320861816 0.92884999513626099 -0.080735139548778534
vn 0.59271442890167236 0.79525744915008545 -0.1274958997964859
vn 0.37585318088531494 0.92594724893569946 -0.036824412643909454
vn 0.68432801961898804 0.70961529016494751 -0.16775356233119965
vn 0.53907966613769531 0.83896875381469727 -0.074327148497104645
vn 0.5522390604019165 0.81850612163543701 -0.15836590528488159
vn 0.38862547278404236 0.91356539726257324 -0.11986874043941498
vn 0.52224457263946533 0.84641271829605103 -0.10414450615644455
vn 0.78106850385665894 0.60705399513244629 -0.14634685218334198
vn 0.72453385591506958 0.67534559965133667 -0.13769175112247467
vn 0.76050055027008057 0.62578201293945312 -0.17330840229988098
vn 0.77309751510620117 0.61211347579956055 -0.16624455153942108
vn 0.86384463310241699 0.4848264753818512 -0.136805459856987
vn 0.82861459255218506 0.53502285480499268 -0.16476769745349884
vn 0.8955310583114624 0.4170285165309906 -0.15527813136577606
vn 0.84437811374664307 0.51186561584472656 -0.15817464888095856
vn 0.90628451108932495 0.39579465985298157 -0.14830692112445831
vn 0.91737115383148193 0.38685652613639832 -0.093659743666648865
vn 0.8901563286781311 0.43602055311203003 -0.13231721520423889
vn 0.96090185642242432 0.26493790745735168 -0.080470994114875793
vn 0.89202046394348145 0.43384140729904175 -0.1268114298582077
vn 0.94813990592956543 0.31191638112068176 -0.061146683990955353
vn 0.96778267621994019 0.2470405101776123 -0.048659045249223709
vn 0.93546009063720703 0.34977748990058899 -0.050696693360805511
f 1//1 2//2 3//3
f 4//4 5//5 6//6
f 7//7 4//4 8//8
f 4//4 6//6 8//8
f 1//1 9//9 2//2
f 9//9 1//1 10//10
f 4//4 11//11 5//5
f 12//12 3//3 2//2
f 12//12 2//2 9//9
f 5//5 13//13 10//10
f 13//13 9//9 10//10
f 9//9 14//14 12//12
f 13//13 14//14 9//9
f 11//11 13//13 5//5
f 15//15 11//11 4//4
f 11//11 15//15 16//16
f 17//17 18//18 19//19
f 16//16 13//13 11//11
f 14//14 13//13 16//16
f 15//15 20//20 16//16
f 16//16 20//20 21//21
f 17//17 14//14 22//22
f 22//22 23//23 18//18
f 24//24 23//23 22//22
f 21//21 25//25 26//26
f 24//24 27//27 28//28
f 27//27 21//21 26//26
f 29//29 28//28 26//26
f 26//26 25//25 29//29
f 24//24 28//28 30//30
f 28//28 29//29 31//31
f 32//32 33//33 34//34
f 31//31 35//35 32//32
f 36//36 34//34 33//33
f 35//35 31//31 37//37
f 38//38 39//39 37//37
f 40//40 41//41 33//33
f 42//42 43//43 37//37
f 44//44 45//45 40//40
f 46//46 47//47 35//35
f 42//42 46//46 43//43
f 48//48 44//44 47//47
f 48//48 49//49 44//44
f 50//50 51//51 46//46
f 44//44 49//49 52//52
f 53//53 49//49 48//48
f 54//54 53//53 46//46
f 54//54 55//55 53//53
f 15//15 4//4 7//7
f 12//12 14//14 19//19
f 7//7 20//20 15//15
f 17//17 19//19 14//14
f 22//22 14//14 16//16
f 21//21 27//27 16//16
f 22//22 16//16 27//27
f 22//22 18//18 17//17
f 27//27 24//24 22//22
f 30//30 23//23 24//24
f 26//26 28//28 27//27
f 28//28 32//32 30//30
f 29//29 38//38 31//31
f 32//32 34//34 30//30
f 31//31 32//32 28//28
f 38//38 37//37 31//31
f 41//41 36//36 33//33
f 29//29 39//39 38//38
f 33//33 32//32 35//35
f 43//43 35//35 37//37
f 35//35 40//40 33//33
f 39//39 42//42 37//37
f 40//40 45//45 41//41
f 46//46 35//35 43//43
f 44//44 40//40 35//35
f 44//44 52//52 45//45
f 46//46 42//42 50//50
f 44//44 35//35 47//47
f 48//48 47//47 46//46
f 51//51 54//54 46//46
f 55//55 52//52 49//49
f 55//55 49//49 53//53
f 53//53 48//48 46//46
