# Rhino

mtllib Ai-Export.mtl
usemtl diffuse_0_0_0_255
v 1616.127685546875 2098.69384765625 0
v 1623.20458984375 2176.000244140625 347.4383544921875
v 1616.5977783203125 2404.120849609375 5.1412205696105957
v 1738.9083251953125 878.44158935546875 1376.9324951171875
v 1686.4478759765625 1372.5281982421875 957.78961181640625
v 1616.2020263671875 871.32080078125 -4.963019847869873
v 1794.904296875 418.83969116210938 1614.1319580078125
v 1617.0108642578125 327.76028442382812 39.759777069091797
v 1775.1956787109375 2106.67822265625 1246.9205322265625
v 1679.5772705078125 1783.9517822265625 866.8839111328125
v 1946.8109130859375 1404.347900390625 1792.926513671875
v 1954.3206787109375 2321.971435546875 1637.4169921875
v 2047.35693359375 1784.117431640625 1869.6004638671875
v 2244.85302734375 2090.37890625 2082.8427734375
v 2201.452880859375 818.31365966796875 2075.3525390625
v 2529.34619140625 1311.52978515625 2298.56787109375
v 2450.84375 2287.13427734375 2254.464111328125
v 2595.9287109375 2933.88720703125 2380.966064453125
v 2029.478759765625 2871.847412109375 1741.31884765625
v 2408.144775390625 188.73365783691406 2209.9921875
v 3235.962890625 616.71881103515625 2681.996826171875
v 2982.117431640625 2142.766357421875 2585.219970703125
v 3192.73681640625 2658.213134765625 2685.07568359375
v 3588.687744140625 2214.195068359375 2789.148681640625
v 3851.894287109375 29.960563659667969 2954.3935546875
v 3750.17333984375 979.50732421875 2846.6337890625
v 3319.9873046875 1757.93798828125 2730.418212890625
v 4058.2861328125 1630.0548095703125 2841.740966796875
v 4411.17138671875 341.62628173828125 2932.04541015625
v 3885.738037109375 2636.53173828125 2829.01611328125
v 4425.9375 1005.9213256835938 2841.753173828125
v 4549.0234375 2021.885498046875 2698.48193359375
v 4961.8896484375 1952.12890625 2452.439208984375
v 4227.65625 2891.281494140625 2775.003173828125
v 5162.65966796875 1568.291015625 2394.61572265625
v 4615.82666015625 2811.706298828125 2598.649169921875
v 5026.1328125 1324.5894775390625 2527.331298828125
v 4696.42236328125 710.4156494140625 2790.2998046875
v 5135.66943359375 322.453125 2616.073486328125
v 5365.5771484375 2229.938232421875 1972.00390625
v 5067.8955078125 2656.9365234375 2234.099609375
v 5523.58544921875 710.321044921875 2168.880126953125
v 5451.5546875 1301.4228515625 2099.948974609375
v 5713.30224609375 2441.010009765625 1364.883544921875
v 5462.90234375 3001.131103515625 1612.9288330078125
v 5973.06689453125 1159.6712646484375 1330.4376220703125
v 5720.3212890625 1722.1702880859375 1580.223388671875
v 5936.27001953125 1702.432373046875 1158.839599609375
v 6066.1142578125 2453.977294921875 607.534912109375
v 5875.77392578125 590.59234619140625 1701.7615966796875
v 6245.6083984375 297.90969848632812 603.70574951171875
v 5932.296875 3001.232666015625 765.041259765625
v 6236.98828125 1982.4248046875 216.98069763183594
v 6273.5556640625 930.607177734375 131.05804443359375
v 6289.92724609375 2813.326171875 4.360872745513916
vn -0.99070483446121216 -0.10203053057193756 0.089965224266052246
vn -0.98780512809753418 0.06812208890914917 0.14000149071216583
vn -0.98259800672531128 0.14525420963764191 0.11576876789331436
vn -0.95721298456192017 0.025011967867612839 0.28830146789550781
vn -0.96279674768447876 0.092243507504463196 0.25399518013000488
vn -0.99599868059158325 -0.012395920231938362 0.088504217565059662
vn -0.87824809551239014 0.014632341451942921 0.47798135876655579
vn -0.99439305067062378 -0.02769654244184494 0.10205559432506561
vn -0.95251971483230591 0.0079868920147418976 0.30437210202217102
vn -0.96160393953323364 0.026460357010364532 0.27316233515739441
vn -0.83418023586273193 0.070903517305850983 0.54691499471664429
vn -0.91783124208450317 0.14341649413108826 0.37015882134437561
vn -0.86189597845077515 0.052372090518474579 0.50437337160110474
vn -0.74052548408508301 0.0015405864687636495 0.67202651500701904
vn -0.72437882423400879 0.016859566792845726 0.68919599056243896
vn -0.57012754678726196 -0.0012383703142404556 0.82155525684356689
vn -0.64161014556884766 -0.0077581694349646568 0.76699167490005493
vn -0.58686882257461548 0.0018701142398640513 0.80967986583709717
vn -0.76489615440368652 0.055323705077171326 0.64177340269088745
vn -0.59005236625671387 -0.035325214266777039 0.80659180879592896
vn -0.40397205948829651 0.0079826461151242256 0.91473650932312012
vn -0.45943307876586914 -0.028648179024457932 0.88775026798248291
vn -0.32346922159194946 0.0014159582788124681 0.94623762369155884
vn -0.22420479357242584 0.0039169616065919399 0.97453415393829346
vn -0.18751066923141479 0.090906888246536255 0.97804689407348633
vn -0.17804190516471863 0.056358423084020615 0.98240762948989868
vn -0.3099980354309082 0.0041478890925645828 0.95072817802429199
vn 0.022170927375555038 0.05361497774720192 0.99831551313400269
vn 0.16759771108627319 0.091237351298332214 0.9816245436668396
vn 0.022867145016789436 0.018280886113643646 0.99957138299942017
vn 0.3157489001750946 0.1571347564458847 0.93574106693267822
vn 0.36155152320861816 0.080735139548778534 0.92884999513626099
vn 0.59271442890167236 0.1274958997964859 0.79525744915008545
vn 0.37585318088531494 0.036824412643909454 0.92594724893569946
vn 0.68432801961898804 0.16775356233119965 0.70961529016494751
vn 0.53907966613769531 0.074327148497104645 0.83896875381469727
vn 0.5522390604019165 0.15836590528488159 0.81850612163543701
vn 0.38862547278404236 0.11986874043941498 0.91356539726257324
vn 0.52224457263946533 0.10414450615644455 0.84641271829605103
vn 0.78106850385665894 0.14634685218334198 0.60705399513244629
vn 0.72453385591506958 0.13769175112247467 0.67534559965133667
vn 0.76050055027008057 0.17330840229988098 0.62578201293945312
vn 0.77309751510620117 0.16624455153942108 0.61211347579956055
vn 0.86384463310241699 0.136805459856987 0.4848264753818512
vn 0.82861459255218506 0.16476769745349884 0.53502285480499268
vn 0.8955310583114624 0.15527813136577606 0.4170285165309906
vn 0.84437811374664307 0.15817464888095856 0.51186561584472656
vn 0.90628451108932495 0.14830692112445831 0.39579465985298157
vn 0.91737115383148193 0.093659743666648865 0.38685652613639832
vn 0.8901563286781311 0.13231721520423889 0.43602055311203003
vn 0.96090185642242432 0.080470994114875793 0.26493790745735168
vn 0.89202046394348145 0.1268114298582077 0.43384140729904175
vn 0.94813990592956543 0.061146683990955353 0.31191638112068176
vn 0.96778267621994019 0.048659045249223709 0.2470405101776123
vn 0.93546009063720703 0.050696693360805511 0.34977748990058899
f 1//1 2//2 3//3
f 4//4 5//5 6//6
f 7//7 4//4 8//8
f 4//4 6//6 8//8
f 1//1 9//9 2//2
f 9//9 1//1 10//10
f 4//4 11//11 5//5
f 12//12 3//3 2//2
f 12//12 2//2 9//9
f 5//5 13//13 10//10
f 13//13 9//9 10//10
f 9//9 14//14 12//12
f 13//13 14//14 9//9
f 11//11 13//13 5//5
f 15//15 11//11 4//4
f 11//11 15//15 16//16
f 17//17 18//18 19//19
f 16//16 13//13 11//11
f 14//14 13//13 16//16
f 15//15 20//20 16//16
f 16//16 20//20 21//21
f 17//17 14//14 22//22
f 22//22 23//23 18//18
f 24//24 23//23 22//22
f 21//21 25//25 26//26
f 24//24 27//27 28//28
f 27//27 21//21 26//26
f 29//29 28//28 26//26
f 26//26 25//25 29//29
f 24//24 28//28 30//30
f 28//28 29//29 31//31
f 32//32 33//33 34//34
f 31//31 35//35 32//32
f 36//36 34//34 33//33
f 35//35 31//31 37//37
f 38//38 39//39 37//37
f 40//40 41//41 33//33
f 42//42 43//43 37//37
f 44//44 45//45 40//40
f 46//46 47//47 35//35
f 42//42 46//46 43//43
f 48//48 44//44 47//47
f 48//48 49//49 44//44
f 50//50 51//51 46//46
f 44//44 49//49 52//52
f 53//53 49//49 48//48
f 54//54 53//53 46//46
f 54//54 55//55 53//53
f 15//15 4//4 7//7
f 12//12 14//14 19//19
f 7//7 20//20 15//15
f 17//17 19//19 14//14
f 22//22 14//14 16//16
f 21//21 27//27 16//16
f 22//22 16//16 27//27
f 22//22 18//18 17//17
f 27//27 24//24 22//22
f 30//30 23//23 24//24
f 26//26 28//28 27//27
f 28//28 32//32 30//30
f 29//29 38//38 31//31
f 32//32 34//34 30//30
f 31//31 32//32 28//28
f 38//38 37//37 31//31
f 41//41 36//36 33//33
f 29//29 39//39 38//38
f 33//33 32//32 35//35
f 43//43 35//35 37//37
f 35//35 40//40 33//33
f 39//39 42//42 37//37
f 40//40 45//45 41//41
f 46//46 35//35 43//43
f 44//44 40//40 35//35
f 44//44 52//52 45//45
f 46//46 42//42 50//50
f 44//44 35//35 47//47
f 48//48 47//47 46//46
f 51//51 54//54 46//46
f 55//55 52//52 49//49
f 55//55 49//49 53//53
f 53//53 48//48 46//46
